<?xml version="1.0" encoding="UTF-8" standalone="no"?>
<!-- Created with Inkscape (http://www.inkscape.org/) -->

<svg
   width="74.839897mm"
   height="7.3601608mm"
   viewBox="0 0 74.839897 7.3601608"
   version="1.1"
   id="svg1"
   xml:space="preserve"
   xmlns="http://www.w3.org/2000/svg"
   xmlns:svg="http://www.w3.org/2000/svg"><defs
     id="defs1" /><g
     id="layer1"
     transform="translate(-102.15034,-179.21345)"><path
       style="fill:#ffffff;fill-opacity:1"
       d="m 112.61147,186.38541 c -0.11372,-0.16235 -0.1318,-0.63283 -0.1318,-3.429 0,-3.16596 0.004,-3.24488 0.17551,-3.41634 0.17034,-0.17033 0.24086,-0.17458 2.39183,-0.14404 2.37674,0.0337 2.72083,0.0893 3.17446,0.51292 0.37901,0.35389 0.47474,0.64578 0.47807,1.45763 0.003,0.62898 -0.0297,0.82333 -0.18474,1.11331 -0.2241,0.41906 -0.59849,0.66864 -1.19482,0.79653 -0.29668,0.0636 -0.41913,0.12608 -0.37805,0.19281 0.0334,0.0543 0.45279,0.62912 0.93192,1.27743 0.47913,0.64831 0.87115,1.26153 0.87115,1.36271 0,0.10118 -0.0731,0.25009 -0.16235,0.3309 -0.33859,0.30642 -0.49975,0.16806 -1.74265,-1.49615 l -1.18533,-1.58714 -1.12183,-3.6e-4 -1.12184,-3.7e-4 v 1.46855 c 0,1.31517 -0.0162,1.48317 -0.15483,1.60866 -0.21561,0.19512 -0.48863,0.17477 -0.6447,-0.048 z m 4.75668,-4.12938 c 0.34071,-0.12548 0.49564,-0.55642 0.40863,-1.13662 -0.0984,-0.65603 -0.17916,-0.67961 -2.43561,-0.71105 l -1.93017,-0.0269 v 1.03347 1.03348 l 1.8415,-0.0457 c 1.0991,-0.0273 1.95202,-0.0864 2.11565,-0.14667 z m 10.31399,4.12938 c -0.11054,-0.15781 -0.13153,-0.5164 -0.13013,-2.2225 9.3e-4,-1.11888 0.0393,-2.29463 0.0853,-2.61279 0.16051,-1.11024 0.56754,-1.72468 1.39468,-2.10537 0.38239,-0.17599 0.54675,-0.19483 1.69932,-0.19483 1.2527,0 1.28515,0.005 1.778,0.2559 0.53466,0.27255 0.94784,0.76788 1.15121,1.38009 0.0692,0.20813 0.1135,1.15684 0.1338,2.86194 0.027,2.26734 0.0151,2.56588 -0.10719,2.68817 -0.19502,0.19502 -0.51591,0.17082 -0.671,-0.0506 -0.10658,-0.15216 -0.1318,-0.46004 -0.1318,-1.60866 v -1.4205 h -2.20134 -2.20133 v 1.47562 c 0,1.22858 -0.0223,1.49789 -0.13305,1.60867 -0.19096,0.19095 -0.51276,0.16434 -0.66648,-0.0551 z m 5.17425,-4.522 c -0.0734,-0.78556 -0.31446,-1.24688 -0.76588,-1.4654 -0.3023,-0.14635 -0.52349,-0.17443 -1.37397,-0.17443 -0.88428,0 -1.06125,0.0243 -1.38653,0.1905 -0.47802,0.24423 -0.68891,0.64784 -0.7445,1.42489 l -0.0419,0.58595 h 2.18262 2.18262 z m 2.96207,4.55534 c -0.12547,-0.13864 -0.14012,-0.50908 -0.14012,-3.54288 0,-3.17475 0.01,-3.39686 0.15483,-3.52816 0.23995,-0.21716 0.49148,-0.17 0.72022,0.13504 0.11348,0.15134 0.84335,1.27529 1.62193,2.49767 0.77858,1.22237 1.44396,2.2225 1.47863,2.2225 0.0347,0 0.75887,-1.08683 1.60935,-2.41519 0.85048,-1.32835 1.61568,-2.4523 1.70045,-2.49766 0.22256,-0.11912 0.31365,-0.10342 0.50392,0.0869 0.16367,0.16366 0.16933,0.28222 0.16933,3.54288 0,3.1607 -0.01,3.38238 -0.15483,3.51366 -0.20263,0.18338 -0.46202,0.17796 -0.63508,-0.0133 -0.12077,-0.13345 -0.14173,-0.47305 -0.16128,-2.61277 l -0.0225,-2.45938 -1.35467,2.12594 c -1.79809,2.82182 -1.49148,2.82078 -3.29738,0.0112 l -1.35929,-2.11475 -0.0225,2.44821 c -0.0196,2.12919 -0.0406,2.4682 -0.16129,2.60158 -0.17812,0.19683 -0.47091,0.19617 -0.64976,-0.001 z m 9.80974,0.0173 c -0.12229,-0.12229 -0.1342,-0.42083 -0.1072,-2.68817 0.0203,-1.7051 0.0647,-2.65381 0.1338,-2.86194 0.20335,-0.61213 0.61657,-1.10755 1.15112,-1.38009 0.49278,-0.25124 0.52518,-0.2559 1.778,-0.2559 1.15303,0 1.31787,0.0189 1.70943,0.19613 0.78864,0.35693 1.20759,0.97816 1.38117,2.04804 0.0491,0.30241 0.0895,1.48432 0.0898,2.62649 7e-4,2.25546 -0.0367,2.453 -0.46378,2.453 -0.45097,0 -0.46691,-0.0834 -0.46691,-2.44359 0,-3.59321 -0.18024,-3.90641 -2.2481,-3.90641 -0.63166,0 -1.07195,0.0406 -1.25107,0.11549 -0.29879,0.12484 -0.73417,0.58614 -0.73417,0.77787 0,0.0651 0.45702,0.48522 1.0156,0.93359 0.55857,0.44837 0.99547,0.84776 0.97089,0.88753 -0.0246,0.0398 -0.51969,0.43772 -1.10025,0.88432 l -1.05557,0.81201 v 0.78142 c 0,0.57023 -0.0356,0.83229 -0.1318,0.9696 -0.15509,0.22143 -0.47598,0.24563 -0.671,0.0506 z m 17.6986,-0.0506 c -0.11306,-0.16142 -0.1318,-0.60068 -0.1318,-3.09033 v -2.90216 h -1.40085 c -1.38382,0 -1.40344,-0.003 -1.61392,-0.21308 -0.15542,-0.15541 -0.19789,-0.26425 -0.15694,-0.40217 0.11876,-0.39999 0.1258,-0.40075 3.68277,-0.40075 3.14503,0 3.36622,0.01 3.49749,0.15483 0.19999,0.22099 0.17688,0.57182 -0.0481,0.72937 -0.15216,0.10657 -0.46004,0.1318 -1.60867,0.1318 h -1.4205 v 2.95728 c 0,2.57556 -0.0172,2.97446 -0.13304,3.09034 -0.19096,0.19095 -0.51277,0.16434 -0.66649,-0.0551 z m 5.07022,0.0681 c -0.15706,-0.11478 -0.16542,-0.26593 -0.18845,-3.4044 -0.0172,-2.35045 0.004,-3.35177 0.0742,-3.52163 0.19144,-0.46218 0.78977,-0.3769 0.88177,0.12567 0.0276,0.15078 0.0388,1.71552 0.0248,3.4772 -0.0242,3.05724 -0.0329,3.20852 -0.18973,3.32316 -0.20845,0.15234 -0.39419,0.15234 -0.60263,0 z m -66.10656,-0.20405 c -0.12521,-0.13836 -0.14012,-0.49732 -0.14012,-3.37355 0,-3.08341 0.007,-3.22499 0.16506,-3.36809 0.15042,-0.13613 0.33248,-0.14565 2.05316,-0.10735 2.64207,0.0588 3.11648,0.20347 5.22755,1.59413 0.57939,0.38167 1.27471,0.90913 1.54516,1.17214 0.65046,0.63255 0.66408,0.86344 0.0842,1.42788 -0.73687,0.71729 -2.75279,2.0635 -3.57587,2.38793 -0.73357,0.28915 -1.86101,0.42103 -3.60234,0.4214 -1.45897,3.1e-4 -1.63038,-0.0148 -1.75683,-0.15449 z m 4.21624,-1.02608 c 0.83927,-0.26717 1.10912,-0.94593 1.04405,-2.62615 -0.0725,-1.87156 -0.51495,-2.20017 -2.96625,-2.20295 l -1.16416,-0.001 v 2.50495 2.50495 l 1.37583,-0.0365 c 0.76331,-0.0202 1.52484,-0.0839 1.71053,-0.14301 z m 2.52745,-1.12152 c 0.28848,-0.1953 0.76753,-0.54551 1.06453,-0.77825 l 0.54002,-0.42316 -0.24368,-0.19626 c -0.44429,-0.35783 -1.89179,-1.32638 -1.92691,-1.28933 -0.019,0.02 -0.003,0.3777 0.0356,0.79482 0.0385,0.41711 0.0554,0.85526 0.0375,0.97366 -0.0717,0.47334 -0.12018,1.27362 -0.0772,1.27362 0.0251,0 0.28171,-0.15979 0.5702,-0.3551 z m 11.15019,2.1331 c -0.16332,-0.16332 -0.16934,-0.28222 -0.16934,-3.34434 0,-3.06211 0.006,-3.18102 0.16934,-3.34433 0.16205,-0.16205 0.2813,-0.16928 2.77283,-0.16804 1.43192,7.2e-4 2.64542,0.0293 2.69666,0.0635 0.33063,0.22078 0.3058,0.67568 -0.0472,0.8646 -0.0986,0.0528 -1.03989,0.0866 -2.41106,0.0866 h -2.24923 v 1.016 1.016 h 1.94538 1.94538 l 0.14508,0.22142 c 0.13014,0.19861 0.13219,0.24441 0.0199,0.4445 l -0.12515,0.22308 -1.96531,0.0227 -1.96531,0.0227 v 1.01444 1.01444 h 2.28984 2.28985 l 0.21308,0.21308 c 0.15541,0.15541 0.19788,0.26424 0.15693,0.40216 -0.11666,0.39296 -0.1738,0.40076 -2.93389,0.40076 -2.49559,0 -2.61581,-0.007 -2.77781,-0.16933 z m 35.17899,0.10851 c -1.78332,-0.24885 -2.49766,-1.23996 -2.49766,-3.4654 0,-1.89304 0.48993,-2.80536 1.75113,-3.26086 0.42736,-0.15436 0.74134,-0.18335 2.37292,-0.21912 1.03421,-0.0227 1.97609,-0.0172 2.09306,0.0122 0.4388,0.11013 0.49766,0.69714 0.0886,0.88353 -0.14196,0.0647 -0.77739,0.0992 -1.82682,0.0992 -3.09663,0 -3.50523,0.29114 -3.50523,2.49766 0,1.46228 0.28205,2.09586 1.04067,2.33777 0.18017,0.0575 1.14936,0.12189 2.27391,0.15118 1.76641,0.046 1.97747,0.067 2.13783,0.21234 0.22358,0.20268 0.22656,0.42509 0.009,0.64305 -0.15934,0.15934 -0.27301,0.16858 -1.92616,0.15664 -0.96626,-0.007 -1.87114,-0.0286 -2.01084,-0.0481 z m 17.36465,-0.0287 c -0.65304,-0.10939 -1.43808,-0.5377 -1.74187,-0.95034 -0.42528,-0.57767 -0.54606,-1.12349 -0.54739,-2.47384 -10e-4,-1.45159 0.13522,-1.96674 0.68352,-2.57657 0.67815,-0.75427 1.43012,-0.93548 3.88609,-0.93645 1.32179,-5.3e-4 1.64477,0.023 1.79917,0.13116 0.21485,0.15049 0.2437,0.4371 0.0682,0.67752 -0.11084,0.15183 -0.27039,0.16823 -2.0955,0.21539 -1.13969,0.0295 -2.10874,0.0935 -2.29039,0.15143 -0.81384,0.25942 -1.09624,0.86158 -1.09624,2.33752 0,1.00209 0.15946,1.68875 0.45711,1.96838 0.45197,0.4246 0.73811,0.4767 2.88714,0.52566 1.8703,0.0426 2.02657,0.058 2.13783,0.21031 0.16478,0.22563 0.15043,0.50156 -0.0348,0.6692 -0.13448,0.12171 -0.38761,0.13881 -1.92616,0.13016 -0.97424,-0.005 -1.95824,-0.0413 -2.18669,-0.0795 z"
       id="path1" /></g></svg>
